<svg xmlns="http://www.w3.org/2000/svg" viewBox="0 0 512 512">
  <!-- Icono de IT - Computadora/Tecnología -->
  <rect x="100" y="120" width="312" height="200" rx="10" fill="#2196f3" />
  <rect x="120" y="140" width="272" height="160" rx="5" fill="#f0f0f0" />
  <rect x="180" y="320" width="152" height="20" fill="#2196f3" />
  <rect x="150" y="340" width="212" height="10" rx="5" fill="#2196f3" />
  <rect x="200" y="350" width="112" height="50" fill="#2196f3" />
  <path d="M180 180 L220 180 L220 220 L180 220 Z" fill="#2196f3" />
  <path d="M240 180 L332 180 L332 190 L240 190 Z" fill="#2196f3" />
  <path d="M240 200 L300 200 L300 210 L240 210 Z" fill="#2196f3" />
  <path d="M180 240 L332 240 L332 250 L180 250 Z" fill="#2196f3" />
  <path d="M180 270 L332 270 L332 280 L180 280 Z" fill="#2196f3" />
</svg>