<svg xmlns="http://www.w3.org/2000/svg" viewBox="0 0 512 512">
  <!-- Documentación Técnica -->
  <rect x="120" y="120" width="272" height="272" rx="10" fill="#f0f0f0" stroke="#f44336" stroke-width="10"/>
  <path d="M150 150 L362 150" stroke="#f44336" stroke-width="5"/>
  <path d="M150 180 L362 180" stroke="#f44336" stroke-width="3"/>
  <path d="M150 210 L362 210" stroke="#f44336" stroke-width="3"/>
  <path d="M150 240 L362 240" stroke="#f44336" stroke-width="3"/>
  <path d="M150 270 L362 270" stroke="#f44336" stroke-width="3"/>
  <path d="M150 300 L362 300" stroke="#f44336" stroke-width="3"/>
  <path d="M150 330 L362 330" stroke="#f44336" stroke-width="3"/>
  <path d="M150 360 L362 360" stroke="#f44336" stroke-width="3"/>
  <path d="M170 165 L200 165" stroke="#f44336" stroke-width="3" stroke-linecap="round"/>
  <path d="M220 165 L340 165" stroke="#f44336" stroke-width="3" stroke-linecap="round"/>
  <rect x="150" y="190" width="20" height="10" fill="#f44336" />
  <rect x="150" y="220" width="20" height="10" fill="#f44336" />
  <rect x="150" y="250" width="20" height="10" fill="#f44336" />
  <rect x="150" y="280" width="20" height="10" fill="#f44336" />
  <rect x="150" y="310" width="20" height="10" fill="#f44336" />
  <rect x="150" y="340" width="20" height="10" fill="#f44336" />
</svg>