<svg xmlns="http://www.w3.org/2000/svg" viewBox="0 0 512 512">
  <!-- Control de Calidad -->
  <rect x="100" y="100" width="312" height="312" rx="20" fill="#f0f0f0" stroke="#4caf50" stroke-width="10"/>
  <path d="M150 250 L200 300 L350 150" stroke="#4caf50" stroke-width="20" stroke-linecap="round" stroke-linejoin="round" fill="none"/>
  <path d="M150 200 A50 50 0 0 0 150 300 A50 50 0 0 0 150 200 Z" fill="none" stroke="#4caf50" stroke-width="8"/>
  <path d="M350 200 A50 50 0 0 0 350 300 A50 50 0 0 0 350 200 Z" fill="none" stroke="#4caf50" stroke-width="8"/>
  <path d="M250 150 A50 50 0 0 0 250 250 A50 50 0 0 0 250 150 Z" fill="none" stroke="#4caf50" stroke-width="8"/>
  <path d="M250 250 A50 50 0 0 0 250 350 A50 50 0 0 0 250 250 Z" fill="none" stroke="#4caf50" stroke-width="8"/>
</svg>