<svg xmlns="http://www.w3.org/2000/svg" viewBox="0 0 512 512">
  <!-- Inventario IT -->
  <rect x="120" y="120" width="272" height="272" rx="10" fill="#f0f0f0" stroke="#2196f3" stroke-width="10"/>
  <rect x="150" y="170" width="212" height="40" rx="5" fill="#2196f3" />
  <rect x="150" y="230" width="212" height="40" rx="5" fill="#2196f3" />
  <rect x="150" y="290" width="212" height="40" rx="5" fill="#2196f3" />
  <path d="M120 120 L392 120 L392 150 L120 150 Z" fill="#2196f3" />
  <path d="M140 135 L180 135" stroke="white" stroke-width="3" stroke-linecap="round"/>
  <path d="M200 135 L370 135" stroke="white" stroke-width="3" stroke-linecap="round"/>
  <path d="M170 190 L190 190" stroke="white" stroke-width="3" stroke-linecap="round"/>
  <path d="M210 190 L340 190" stroke="white" stroke-width="3" stroke-linecap="round"/>
  <path d="M170 250 L190 250" stroke="white" stroke-width="3" stroke-linecap="round"/>
  <path d="M210 250 L340 250" stroke="white" stroke-width="3" stroke-linecap="round"/>
  <path d="M170 310 L190 310" stroke="white" stroke-width="3" stroke-linecap="round"/>
  <path d="M210 310 L340 310" stroke="white" stroke-width="3" stroke-linecap="round"/>
  <rect x="150" y="350" width="80" height="20" rx="5" fill="#2196f3" />
  <rect x="250" y="350" width="80" height="20" rx="5" fill="#2196f3" />
</svg>