<svg xmlns="http://www.w3.org/2000/svg" viewBox="0 0 512 512">
  <!-- Seguimiento de Envíos -->
  <rect x="100" y="150" width="312" height="212" rx="10" fill="#f0f0f0" stroke="#ff9800" stroke-width="10"/>
  <path d="M150 200 L380 200" stroke="#ff9800" stroke-width="5"/>
  <path d="M150 250 L380 250" stroke="#ff9800" stroke-width="5"/>
  <path d="M150 300 L380 300" stroke="#ff9800" stroke-width="5"/>
  <circle cx="180" cy="200" r="15" fill="#ff9800"/>
  <circle cx="250" cy="250" r="15" fill="#ff9800"/>
  <circle cx="320" cy="300" r="15" fill="#ff9800"/>
  <path d="M180 200 L250 250 L320 300" stroke="#ff9800" stroke-width="5" stroke-dasharray="10,5" fill="none"/>
  <path d="M130 175 L200 175" stroke="#ff9800" stroke-width="8" stroke-linecap="round"/>
  <path d="M130 225 L200 225" stroke="#ff9800" stroke-width="8" stroke-linecap="round"/>
  <path d="M130 275 L200 275" stroke="#ff9800" stroke-width="8" stroke-linecap="round"/>
  <path d="M130 325 L200 325" stroke="#ff9800" stroke-width="8" stroke-linecap="round"/>
  <rect x="350" y="170" width="30" height="20" rx="5" fill="#ff9800" />
  <rect x="350" y="220" width="30" height="20" rx="5" fill="#ff9800" />
  <rect x="350" y="270" width="30" height="20" rx="5" fill="#ff9800" />
  <rect x="350" y="320" width="30" height="20" rx="5" fill="#ff9800" />
</svg>