<svg xmlns="http://www.w3.org/2000/svg" viewBox="0 0 512 512">
  <!-- Monitoreo de Sistemas -->
  <rect x="100" y="150" width="312" height="212" rx="10" fill="#f0f0f0" stroke="#2196f3" stroke-width="10"/>
  <path d="M100 200 L412 200" stroke="#2196f3" stroke-width="5"/>
  <path d="M130 175 L200 175" stroke="#2196f3" stroke-width="8" stroke-linecap="round"/>
  <path d="M150 230 L150 330" stroke="#2196f3" stroke-width="2" stroke-dasharray="5,5"/>
  <path d="M200 230 L200 330" stroke="#2196f3" stroke-width="2" stroke-dasharray="5,5"/>
  <path d="M250 230 L250 330" stroke="#2196f3" stroke-width="2" stroke-dasharray="5,5"/>
  <path d="M300 230 L300 330" stroke="#2196f3" stroke-width="2" stroke-dasharray="5,5"/>
  <path d="M350 230 L350 330" stroke="#2196f3" stroke-width="2" stroke-dasharray="5,5"/>
  <path d="M130 330 L380 330" stroke="#2196f3" stroke-width="2"/>
  <path d="M130 280 L380 280" stroke="#2196f3" stroke-width="2"/>
  <path d="M130 230 L380 230" stroke="#2196f3" stroke-width="2"/>
  <path d="M150 280 L200 250 L250 300 L300 230 L350 260" stroke="#2196f3" stroke-width="4" fill="none"/>
  <circle cx="200" cy="250" r="5" fill="#2196f3"/>
  <circle cx="250" cy="300" r="5" fill="#2196f3"/>
  <circle cx="300" cy="230" r="5" fill="#2196f3"/>
  <circle cx="350" cy="260" r="5" fill="#2196f3"/>
</svg>