<svg xmlns="http://www.w3.org/2000/svg" viewBox="0 0 512 512">
  <!-- Gestión de Almacén -->
  <rect x="120" y="180" width="272" height="200" rx="10" fill="#f0f0f0" stroke="#ff9800" stroke-width="10"/>
  <rect x="150" y="150" width="60" height="60" rx="5" fill="#ff9800" />
  <rect x="230" y="150" width="60" height="60" rx="5" fill="#ff9800" />
  <rect x="310" y="150" width="60" height="60" rx="5" fill="#ff9800" />
  <rect x="150" y="230" width="60" height="60" rx="5" fill="#ff9800" />
  <rect x="230" y="230" width="60" height="60" rx="5" fill="#ff9800" />
  <rect x="310" y="230" width="60" height="60" rx="5" fill="#ff9800" />
  <rect x="150" y="310" width="60" height="60" rx="5" fill="#ff9800" />
  <rect x="230" y="310" width="60" height="60" rx="5" fill="#ff9800" />
  <rect x="310" y="310" width="60" height="60" rx="5" fill="#ff9800" />
  <path d="M160 170 L200 170 M160 250 L200 250 M160 330 L200 330" stroke="white" stroke-width="5" stroke-linecap="round"/>
  <path d="M240 170 L280 170 M240 250 L280 250 M240 330 L280 330" stroke="white" stroke-width="5" stroke-linecap="round"/>
  <path d="M320 170 L360 170 M320 250 L360 250 M320 330 L360 330" stroke="white" stroke-width="5" stroke-linecap="round"/>
</svg>